<mxfile host="app.diagrams.net" agent="Mozilla/5.0 (Windows NT 10.0; Win64; x64) AppleWebKit/537.36 (KHTML, like Gecko) Chrome/129.0.0.0 Safari/537.36 Edg/129.0.0.0" version="24.7.16">
  <diagram name="Page-1" id="wN3byoeqDHxOwy1Ysrwc">
    <mxGraphModel dx="2325" dy="2031" grid="1" gridSize="10" guides="1" tooltips="1" connect="1" arrows="1" fold="1" page="1" pageScale="1" pageWidth="850" pageHeight="1100" math="0" shadow="0">
      <root>
        <mxCell id="0" />
        <mxCell id="1" parent="0" />
        <mxCell id="swZepkNG1poCpX0fvXZE-29" value="" style="rounded=0;whiteSpace=wrap;html=1;fillColor=#e1d5e7;strokeColor=none;" vertex="1" parent="1">
          <mxGeometry x="400" y="120" width="580" height="200" as="geometry" />
        </mxCell>
        <mxCell id="swZepkNG1poCpX0fvXZE-34" style="edgeStyle=orthogonalEdgeStyle;rounded=1;orthogonalLoop=1;jettySize=auto;html=1;entryX=0;entryY=0.5;entryDx=0;entryDy=0;curved=0;exitX=1;exitY=0.5;exitDx=0;exitDy=0;fillColor=#fff2cc;strokeColor=#d6b656;strokeWidth=2;" edge="1" parent="1" source="swZepkNG1poCpX0fvXZE-28" target="swZepkNG1poCpX0fvXZE-2">
          <mxGeometry relative="1" as="geometry">
            <mxPoint x="440" y="320" as="sourcePoint" />
            <Array as="points">
              <mxPoint x="350" y="315" />
              <mxPoint x="350" y="580" />
            </Array>
          </mxGeometry>
        </mxCell>
        <mxCell id="swZepkNG1poCpX0fvXZE-28" value="" style="rounded=0;whiteSpace=wrap;html=1;fillColor=#fff2cc;strokeColor=none;" vertex="1" parent="1">
          <mxGeometry x="-100" y="190" width="385" height="250" as="geometry" />
        </mxCell>
        <mxCell id="swZepkNG1poCpX0fvXZE-9" value="" style="rounded=0;whiteSpace=wrap;html=1;fillColor=#d5e8d4;strokeColor=none;" vertex="1" parent="1">
          <mxGeometry x="-10" y="-140" width="900" height="170" as="geometry" />
        </mxCell>
        <mxCell id="swZepkNG1poCpX0fvXZE-20" style="edgeStyle=orthogonalEdgeStyle;rounded=1;orthogonalLoop=1;jettySize=auto;html=1;entryX=1;entryY=0.5;entryDx=0;entryDy=0;curved=0;exitX=1;exitY=0.5;exitDx=0;exitDy=0;fillColor=#e1d5e7;strokeColor=#9673a6;strokeWidth=2;" edge="1" parent="1" source="swZepkNG1poCpX0fvXZE-2" target="swZepkNG1poCpX0fvXZE-4">
          <mxGeometry relative="1" as="geometry">
            <Array as="points">
              <mxPoint x="850" y="580" />
              <mxPoint x="850" y="200" />
            </Array>
          </mxGeometry>
        </mxCell>
        <mxCell id="swZepkNG1poCpX0fvXZE-51" style="edgeStyle=orthogonalEdgeStyle;rounded=1;orthogonalLoop=1;jettySize=auto;html=1;entryX=1;entryY=0.5;entryDx=0;entryDy=0;curved=0;fillColor=#e1d5e7;strokeColor=#9673a6;strokeWidth=2;" edge="1" parent="1" source="swZepkNG1poCpX0fvXZE-2" target="swZepkNG1poCpX0fvXZE-44">
          <mxGeometry relative="1" as="geometry">
            <Array as="points">
              <mxPoint x="640" y="201" />
            </Array>
          </mxGeometry>
        </mxCell>
        <mxCell id="swZepkNG1poCpX0fvXZE-2" value="Data Availability Layer" style="shape=datastore;whiteSpace=wrap;html=1;" vertex="1" parent="1">
          <mxGeometry x="590" y="510" width="160" height="140" as="geometry" />
        </mxCell>
        <mxCell id="swZepkNG1poCpX0fvXZE-13" style="edgeStyle=orthogonalEdgeStyle;rounded=1;orthogonalLoop=1;jettySize=auto;html=1;entryX=0.5;entryY=0;entryDx=0;entryDy=0;curved=0;exitX=0.647;exitY=0.991;exitDx=0;exitDy=0;exitPerimeter=0;fillColor=#e1d5e7;strokeColor=#9673a6;strokeWidth=2;" edge="1" parent="1" source="swZepkNG1poCpX0fvXZE-6" target="swZepkNG1poCpX0fvXZE-4">
          <mxGeometry relative="1" as="geometry" />
        </mxCell>
        <mxCell id="swZepkNG1poCpX0fvXZE-6" value="Task 1" style="rounded=1;whiteSpace=wrap;html=1;" vertex="1" parent="1">
          <mxGeometry x="620" y="-60" width="120" height="60" as="geometry" />
        </mxCell>
        <mxCell id="swZepkNG1poCpX0fvXZE-42" style="edgeStyle=orthogonalEdgeStyle;rounded=0;orthogonalLoop=1;jettySize=auto;html=1;entryX=0;entryY=0.5;entryDx=0;entryDy=0;endArrow=none;endFill=0;strokeWidth=2;" edge="1" parent="1" source="swZepkNG1poCpX0fvXZE-7" target="swZepkNG1poCpX0fvXZE-6">
          <mxGeometry relative="1" as="geometry" />
        </mxCell>
        <mxCell id="swZepkNG1poCpX0fvXZE-7" value="Task 2" style="rounded=1;whiteSpace=wrap;html=1;" vertex="1" parent="1">
          <mxGeometry x="410" y="-60" width="120" height="60" as="geometry" />
        </mxCell>
        <mxCell id="swZepkNG1poCpX0fvXZE-10" value="" style="group" vertex="1" connectable="0" parent="1">
          <mxGeometry x="710" y="150" width="100.5" height="130" as="geometry" />
        </mxCell>
        <mxCell id="swZepkNG1poCpX0fvXZE-4" value="" style="shape=image;verticalLabelPosition=bottom;labelBackgroundColor=default;verticalAlign=top;aspect=fixed;imageAspect=0;image=data:image/png,iVBORw0KGgoAAAANSUhEUgAAAZAAAAGOCAQAAAATap2sAAAsaUlEQVR42u2daXwcxZnGn6qeU5ZkyZLlS7Zs4wvbxByGYAKBcJs7kBDCtRACJCQEkwQI2RwbCBsCOXa5NglhCRA2IRhC+AHhCDiAAWNDzGnjC1uybMuSdVnXHN1V+2EsI810y2qpZ1rvzPv3B6gZdc9b1f10HU9XFcAwDMMwDMMwDMMwDMMwDMMwDMMwDMMwDMMwDMMwDMMwDMMwDMMwDMMwDMMwDMMwDMMwDMMwDMMwDMMwDMMwDMMwDMMwDMMwDMMwDMMwDMMwDMMwDMMwDMMwDMPYIPwOYHhowFhbXBdKirACAFPEJQAEdCqdFAkJAEEdUgCQkEkBACEV1AAQl6YAgLAKaACISUsAQEQZfdICYWVoQIuYUAIQOqKlBrToEVoAQke10IASMaEFIHVECw1YIiYBwNCRwUUnknKg6AaO1uvoHKNVIT2IshRJlKo53ZU9tG8yorFrQFxRmThk4+E7xlbMMcqFoU1oAIYIAACUTgKfpLUFEwAQEAYAaBMWAIgA+qeDkACgk1AAhAikpYMQALROQtukpQimwktLqz3RfZLuFx0s3T+6PdEOMTrohG10QoRyGp3U8c667k0Lt4nnF299vuf//L5phgRBgazDLPnNmau/tP2slhlmSQyqTyZ0Wsaym87trw09utxHq/f8okAAkWR0V+XLs/9y0gs3dW4Hk2Xm4LbRi66evCGihAb/I/FPaEOXdc5fevoCLV/x+wZyCbEa5GyEZ637xdoTYhE9/JMxOSWAsVsOum3GvTvNR/wOxQWG3wG44VOIz1p738cnxAJ+R8K4R6GrrOXoXZ2z3qrQm/wOZtAQEsjRmDPrg/u2HZn0OxBmyMRC8SN155/fqtT/8DuUQUJGINfg06P+ccfmxSwP2iRC5qffW/3Wpnq/AxkkRASisRjdX/lgSQ83rsjTHe2eetIzk7rW+B3IoJB+BzA4zsTVk7d8vSfsdxzM8NFoXPT6eUtBY5iFyBP5X2j6/K4DVMbnAqlRd2Zkkro2/a+PRo9Rf/Glfz5np9/RDQYSArkeEyp+c24so7YTMBIlq8teatwct8IGAFg6YQGAIUMSAEydtAAgIIOptEoqAAjKgASApDIVAIQMQwBAQll90hoJS2lAIBSQsEvHLa0BIcKGAKCQMFOWdCiV1nELfdJDjS5oBAaIDggbUoy86ExVUSI/3XJMbHz6ddNond980sYH/b6v8oYDcNIBZbsy7afQ7sk/OmfsG4LSuHrh8BcAS4KHHFXymsywDgN65t0aT/kdYr5wAL7w3eLMQraqb/r34Dl+B8cMwAWoxiGfKlkrMh5u8z+6bdINfoeXL0zAvNvCGUVc/P5JU87wOzRmH1wAYMr1gYyrN77hmGmL/A5uEBAYxVqPHaiX6f6HwNiV126z/A6O2QcP4zhMfS3anP55m6gzKPjpBARiAtDh9JEqgeLtJ1lH+R0cs08OxP7Ncnf/zzRMWR5WQzthTiEgkNRUhsyhXK0EhfALHgGhdMbl05AkXpQlcIcJAJbdw0ZodkAIoKFF5lvjWncr0+/QBgEBHyQMoCdh84UAKBRxoaOghLARSF28x+/QBgGRGoTJP2jU/lQEop2+YJhsQkAgcQCG3VvHmjVCAQFh+4ArNYJ+hzYICAjEAhAJ2XyhBIUuVMEjITMHsSDlxFCR36ENKnqGYRwhIhBuSuUfgsRVJSAQAcC0e6dEaFDwYgsde7dK604r4fpcuYdAIz4CIGY3FV2k+ifMyMbJB9maiPkd2iAgUIMw+QmFBhYJgbAPkp+wUegRMQABu6agJhF+wWPvgwgxJhAayulyDIE7TAEI23lKSlBZtaigsfdBhKgKRv0ObVDRMwzjCBGBcHcj/2AfxCMEgKTde+3sg5BAOfggbWbc79AGAQEfJAogbicQyT4IBbSDD7IjScEHISAQ7foLe74AEdSzEYQGIPfU772PN3dpsbd90JuWeyJKVWnDTQ8vusxovYxOYDt2LvXgulJoYJEQiFc+yDNABR5AtU69Jp86rd57quGl9+xC1humu3Tv2dLTIyO6/mkR0D/Ffw3viqag4YMQEEgMQChoMz1TuetCdQMSlaKKxoUZqQjoUW6PkNrOB6kKNKLT7+zsEwKddAUgZGsUDsUHYXkMD/flJ22XFxeiIhjxOzODip4EfFvnHzTWpCEiEBodOsYN7IN4GGLCwQfhYd6Rj4K2kYLWzSSGeQkIJAIgYTcfRIKNQgJoKNuF4xpNFognaMC+jUWhCcs4QqGBRWKYV7j+wrNfKHiy+Qyi8XwjIJAeAOFAd+YXyotNeqVlbFc9urei2tMY0Hvabg5p3ceCGzi9x4PudQD3Wm4DprVOi2Zf6SxFJyXGmqOHW8ICUmsbH2RCsAEdw75+2YaAQDSAoIMPctuwzx5tOuLS7e+1o1sBwBgjIjSAViumASEqZEhoaLRYCQ1IUSGDQkPrXcrUgCEqpRSApZuVpYGgqJBCCCR1s1IaCIsxBiAQ1y1KayAqygxAoEe3WgAwSpZKQKBLtSsAKJElUkOgQ3UoACiTRVID2K26+kXXZvX0iQ5oTouuWSX7RKf0LtvoQqLCAAQSurlfdDHdsie6BcE1P9ny1eH286RtDS1EWaCVBeIV2auOhVW1a1zTH/ekWtK+Td/3ZVdauiktnb5x64609LZ+qfRfc5sebnQNA0b3bfy7nJ1Fq5t9ECJQuEx+oADunlEQiITTMK83PohghdhiAJ6MoysoYeeDNCZ5+wNPiMBpwpQn108LXfCPSVsk+rzQOwy07SrjWreYFBaOIyAQ9kHyExqPJQICYfITGs83AgKJAYjYLfujvfBBIDR3QmyxsNcpGRbSwQep5u0PvEEDCNhuoOPNLrfcBbHHq1Es4eCDlBgUFo4reB+k0NC4Dp8xlIAJnONzJBSuKhGBMF5wGw6Sh32q8Qt37a+NqvUTHr/zLctc4ndQIxwCTSwDQNxuRFBqL7aB1kIVRhvrW1hofOeCNY/Xfz9+duLM7dd98NgvrxwXvN3x77Prgyi1PdE9hLPlGgI1SBhOG+h40/QqDHkAj+DlIzf+rGdSqtQUeiZu/8mPa9c/dTnutf377PogwG4r6f5kOYdADcI+iBfcjBXBhotjk3pb/hqAWbHrq9+O1vgd2oiGQA3COvCC5/ByZfKQvmWpAZjzmqpjG/yJiEbNTaAGiQOI2o0Iak/0XSA+yC7sDJoZK1rJSFdRu8MRJrLrg0wJF/tdKIOKfsSjARh2cWpv1sUoDB/kEHxud6Qu/VO1s7JhssMRjk1blzj5IEWSQPOFgkAAbmYNnwtwR1v0qYD5yc0qIHXxM79t/KdPEdHwQYgIhBkup+AwHPFw5RNG7/RcCJS+OO3eo/QKnyKiIA8SAgkAiNltJcE+iCtWorbx4Gurbi/eFOgJxIq2Vt190Nde2/p5x78PAJ74IJaDD1If7/K7SAYBgWZgCIDlsLo7+yBueB3fqz/yB3+9r2sqZLDu8x+L+Ev4zoDl4oUPAgcfpEt58HjLOgQE4tX+IAxwK2BiAzYAwDt+B0MCAk2s1K4tTL5hCApXlYBA4gAi2fRBJFdFdmTZB5E1IfZBPCOrPojfmRuhZNkHQVhS2OWeiED4Js4/2AfxEgplybhCeTNElmUICCQIoIfng+ScAADtwcJjTj5IXYKCD0JEIIp9kJzjXbnY+yAxRWH7I8o+iCcIBArjbUXXhAHwAB8BgVhweJp5cvHipU9c1lbP1Ugm38b1ctTh2aujg4LCyooEBJIAEA3bLJTviQ+SKE0s8TuHIxUT7cM/iYMPImVNuC5jvfqRB4E+CADYmq4e+SBMdnG6RgF20hmGOkQEYjtkLmhYTYWO0zUySfggBPogIQA9dvNBBLzwQZgso6BEZmtKqVoS80EI1CAGHJ5CFJqwDJzqkKSmsMs9AYGwDhj/ICCQJADpsHAci4cC9q88RCSBm49CHyQJIBqyWaZSeRM+DxY748UwiAFp0x2XckpoCwEfhIBAADhUFV7skx7qnPik0YQ9Vpbo3dRb7SNt6VRQvVMa+qd1qnktejcwcZve16/nKDphtBzZelC2xpokCR+EiECyV5Shts/+/IH3+jQ1hedjx+lnHCgtoDPSAx3rPX1/Qc76eVvWBEKj5iYiEMtuwENoD2oQIKkvwP9RGFDJMTfjB56o0b6ZphHnt3m9IQwgZvdemyc+iOb5IA4EAO3Z/iCZ20CrWhL7gxAYSJDgCYW+kcWCt0g46QQEIlx/wTBeQUAgCQBG1nyQ7Pd6qeLVqiZOPsgoXt3dG0wAkbDNF0p4si4WT5uzxwQ82WfbyQepDo8awtlyDQGBMPkJjRYyEYHQKEzGDTR8EAICEXD2QbxafLxQWAqNyyvnLph94MXjXxADu0he3b4OPoju4dXdvSEMh3WxvPJBCmZVkwr8vnTJeR0XJfeDbKhb9pfq/53R8i18y+GvA4CGB16egw+ia+M9fhfIICAgkEK5fbPN4Sgbteqm9sutIg1AjOte0DF76vX3t/oVD42Km0gTy90XTCYaK/DhWbsvTckD0DBDXRfuvng1TvU7tBENAYHE4bS6O/sgg+cy/Meoni9apZ/kVsOMNH3+a+UHOxyReqV3+L8sHHyQUiPod6EMAgICseCwPwj7IC54E0+UJWak51RMbZy42eEIyyMfRDr4IBNDRX4XyiAg0AdhvCCCiJKZYxpW0AwP4WyFA4EaBODuxvA5Bte0hFanl6NYW1U/2aeI2AfxCAHAtBtuFJ68jU1lOGWY/BJXxcf+Obztk5tSINQ6/qE7u2odjpAelY2TD9JpUVibl4BAIgBiNlPSIeDBMH3h+CAzMPvF8psj9RICAgKh5km3nfzklbjf4e+N7M4H0VtJzAfhPkjBsAInm0ff99H62nPFAiHNdROXnvCCGfutb/HQeCwREIgA7Kt6GiU8gngWMO9cNv6VFWOUWNBqJb/iaxHSaNkSEEgMQCBg05jSXrQQBTSJ1TW84mrAQlPq/y8b8C+VR8O89j6IEGMCuwgsHUugD6IAhO08JSXgwUbCAoLGsyzXWIAntbS9DyJEVTDqdxYHFT3DMI4QEUghNYIKBfZBPEIASNo1VtkHySpe+SDKwQdpM+Ouz5V7CHTSowDidgKR7INkE698EO3gg+xIxvzO4iAgUINo118wFKDxWCIgkOz6IMKrE+Ud2S4VGs83Ak2sGICgnQ+ivNC3lh0lu0uO37MBSW97ee+y6Q7pvcum7/lv//TeZdL3tFDcpvf167mJ7gXUSxUZdgGnxtFtfJCxgUYCPggBgaR8EJv2qvZi+4NY5fI7ZRd6H2ifPDb7p3svsLu009m8Tg8tun1G+47omTb857yEhJ0PUhnswMjfpZCAQIBsVsdWuG2h37kbuWSzGURjj2IiAslme5jCZcpH2AfxCAEg4eCDUNhhotBR0DZS0LqZh3m9IQogYTcfRMIbo5DJKhrKprLQutFkgXiC4yrj3DYiDYUGFgmB8LpY+QmN5xsBgfQACNsNJih48bo7k2UEpNY2PsgEft3dGzSAoJ1AtCfzeZgsI22reiHKAhQWHCIyzJu96ljoYLfkvr49IhmyQsM/jT3sg3hI9rob4V2zf2RukXtWIO19sbd3kqHH6b1zF+3Te/8aGDidnejS0hpB2fCVnecU9tODgEAkgLjtMK/GrcMvgNj8V+Sah/zO5AjkNlwnZh4z/PMoKGHngzQmefsDT4jAacKUFz6IR5Ou8hAL3jRtte0q41q3mLxwnCewD5Kf0BilJyAQR2iUMOMAjecbAYHEAERsl/3xwgcR0AWx/YF7LEAIr7Y/sPFBqklsf0BAIBpAwE4J3vgggsqzLNd4uoFO5qeixMjaCLKHEBAIwLdwPkLDByEiEIbxBwICMQDE7UYEpeZtoLOIAWjt1fYHmZ+qHbz9gTeE4bSBjkdNr4IRiMZUHFW26uDgwTASH8x686ldv8WVjn/t6QY6NkXcbiXdnyznEBAI+yDe0IUoJs1/9oftJ6nRgOhuemXhTVe+cSKe9ykeGo8lAk0s1oE3zMOh05t+3fIFc7SCBauo7eQN/33E/Jfxgt+BjWgICCQOh22gtRcVoBCF4YP8Cpux8YKuz2mZGj3S0Og4dMOVDxkrHY4ws+yDTAmP8rtQBhX9iEcDCNjFqb1aF6MQBPIPfLkieZwy+uZVI3b0MxOaBiqVLPogRTLo+ly5h0AfBCiMWzi7bEAgGqtK/1SWtZbH6v2JiIYPQkQgzHCZhpJYY0v6Soaqrbx99ECHZfEepiAPEk0sA0CMfZBhciyW7gq8KPsNlwtEXz1u+2SHIwKATd/BPZaDD1IfH/kLj5IQSBiAZWdYsQ/igu9hMiY9GF7Z2yMQkCh6u/p3F5k1Dkc4rqrvGnsfpEuN/KWrSQiE9wfxhn/iX5umXlP6ZKDLgIFAV+mLY5dseXc6vuh3YCMaAn2QrM/4K4QKBMAMAG2rDv5K82daDrKMqvdKlr/a8CPc7Fs8BonttwkIJA4gGurM/MIrH6SAtoHeju3NeBJPAjuwrydDln0QWRPaila/C2QQ0ZPAYB8k52TZB0FYUlj2j4hA+BbOP2j4IEQEQqIs85EslrvyYgw56xAQSABAD/sgOSfg0XwQJx+kLsE+iCeEACiHXW7ZB8ke3pWKvQ8SUxS2PyIgEAoVMZOvEBCIBYenmVfK4QrEFu8eTPYFHCThgxAQSAJA1G6lfG98ECKbSeYeAcCLe9jeB5GyJlzsdxYHAQGjEHC4UJ7sk26F6w8tGnOy6F1fPdUh2TOr6JO06v1JLQAB0T+912tMTb76JK0k+qaFEn3TvWd3m85NdC+LN2R88vDrESeNBbxwIbMOEYFkj1jlm3dICm/N+YFIRgu9B0hEILZD5kJ7UINoGS/xO3f5jZPETBI+CAGBhAD0xG2+EPDAB2GyjYISmU1kpWp5Pog3GHB4CnHfmgj2NUXSCxcy6xAQCOuA8Q8CAkkCkA4Lx7F4KGD/ykOYxCgWgRiTAKJ262IpEl2ogseAtOmOU/FBCAgEgENVwfUHZSQ76d7hVVGyaz48vC0/CteCSBvFflUTdz6IBEysQ4egMHgycgmIRnfrBNhPjNJIkHibl4BAwnBYF8ulDyKBJpwjCmgGejYQ0HF3ArH3QbSq5f1BvEHCmzdLTUCjw+/cML1YJJx0An0Q4foLhvEKAgJJgH0Q2tj7IEW8qok3mHDyQQSFFmLB4+SDTGYfxEO4qsg7aFxSIgKhUZiMG2h4UgQEIuDsg1AYByl0HHwQ3UNidXcCjfgwHNbF4vkgJHDwQXRdnIIPQqQGYfIPGi80UBYIK4fJOgQEEofT6u6sERrY+yClBoVdbgkIxILDPunsg5DAyQeZGCryO7RBQEAgDOMfRATCTan8g30QjxAATLupA0ITGQkpbJx8kE4r6Xdog4BAIz4CIGZXliLVP2FGNk4+yNZEzO/QBgGBGoTJTyg0sEgIxHFDexolzDhA4zUhAgKJAQjYNQU1ifALHmHvg4hyIzSEs+UaAneYAhC285SUAIUpN4WOtPdBxLhQ1O/QBhU9wzCOEBEIdzfyD/ZBPEIASNq9184+CAmUgw/SbsZdnyv3EPBBogDidgKRQ/NBdOpYAYtrplygHXyQ7UkKPggBgWjXXzjzNVyNM2pWH2/MNwLmuqnPXrpxB571O4MFCo2HEwGBeOeDLMJv8Pfjd/+s80AroGGotrW7/uP5x76jH/E7iwUJ+yAeEQMQtBOycht+ExYsbLm7fWEyoKBhyo55m3914lGP4FG/s5jXCNvFA4QYGwgP5XQ5hoBAHH0Q7c4HuQJvGo2XdM/6pGOvEZ/c/I0rw//jdxbzGglp5xOKyiD7IJ7hRXW8DMeM6T6q/7iXRschuyeM9zt7BQmNNWkI9EEAbzp0WyGCybL0T41wqJTIUyLPYB/EIwSAhIMP4maYdw4OiY/emf6p1dHStMvvLOY1CtpGClo3mxSGeQkIJAogYTcfRLpbOuZ0vNoy6jnZ52IJSJS/dFYTBcOKLhrKprLQupGED0JAIBqwb2O5bMLejMP0/veXL++9WgICo1ZX3fNT8zm/s1iQUGhgkRCId+tiXY/nPl7wjcql0baANhDuGPPs+CvWrBlN5FLlGxS66CQ66T0AQoGezC8UXL7u/kVoVL932KXth74/15Jz109a+VjrIzjP7wzmOQJSaxsfZEKwgcCGXwQEouEgEC1cbeIJpCqdbZ1YhmXAm6BSzdNG2payEGWBVgICIdDEAqhUx4wbaPggRATCT/p8hMJVJSAQCSBuO8zrzgdh/EFBCTsfpDHJ2x94QgROE6aoLKFf2GjbVca1bjETQzldjiEgEK98EGZkQaGBRUIgjtAoYcYBGs83AgKJwWnZH7c+COMH0sEHqebtD7xBAwjaKUELCuEXPMLBBykhsXAcAaMQ8LI6vgrTQ3+a1VWjdLj+3PW7Y7f7nbWChYYPQkQgXrEQq2v+dn37mT1VQKTlnqeqb8P6h3CR32ExIxYCbRQDQNxuRNC1D3IYxk/YdPfOqzonqaAV7B6387J1vz+w5ud+ZzDPsfdBlNqRYB/EE8Jw2kDHnQ/yY6zEu//WeoqFVJNNQ6H7qNarXpXn+J3FvEY77LbaTmIDHQIC8coHeQ4nl8dOM0XfwyzsOvnCii6/s1iQ0BilJ9AH8aor9y5kNF6d/qkoHztWNvmZvx5E8EMjOeajcetGN0QtUZyc3jmveULDCT0bcKmfgTEgIZA4gEjI5imv3YVfibC5s6sz7VOVTMT8epZ9jBNxVfj4OS2Ldn02NjMwLl6ajGqRMLs617SYWx96O/zPS/51f9Oj+lyf4vMGJx9kSrge7X4Ht08ICEQDCNg1BV3OBzkRp7Z9c2XX3L7XSmDUh6qhwYdc3Y+l+HXxqGN+fkHXUT0TtVAQe+pKMxiPYqyY3XV88OodH776xLRHezberb/rQ4ze4OSDFMmg63PlHgICAbxpZt2HVxJVD+w+sWti6nwCQKhl7O/+3P0H/DPH+TkbW2XD4auW7F6cKNboHTTon2ONRFHi0M6FTRft/5sFfzyzOYlnchxldqHhgxDopHvHTFzwypTvFW+WEBCQKNpW+f2L/n46LslpFN04EhNG//47Hz3a9MV4sRrgRtHQsETHnPpfLH+w4dCnxRN+F6CnUJAHiRrEABBz8EF+5upMz+AgddfD173T8oXGA7Qcu27iY59+6zX1VE5zczwOxqhJT/znzi9bwcHcIhqAGWg5Ze2sud+f9dhn1Gs5jdYLLAcfpD5OYfSQgEDCACw7w0O4fwrdglsU3n/jfWmExQJzJ3K96OhpeANlUz6+p+MU09XIgEbHjNp7WovPfCCkluU45uFj74N0KdP9qXIOAYF4uT9IikVD23ln2LRhLuZO/PCu3ae6/3mNnkp9+wuJTQ8/g1P9CL5AIdAHyZ9Zg9fhrJItP9l92tBypBGraPrPTx97Kr7ld0Y8wRAUrEICAokDiNq9Ge3SB/GbpbgXT1/ScJElnKs+MeCSzhqdU9bddGT1K0Q6uCkcfBBZExrld2iDip4EhoMPQuEZlOJx3IiFC1quNcP2m2UZVqCh5P3KVytfLl8Z/jjQ6ZS3riNqr35W/tbv7LjAwQdBWFJ4vFGIEVSGBAeiATcFlny9e5pdTmQsunr0k+X/jGw9OlakNwRWjQ4d1LC4+8TkBJ12b2lYovniEx5rXvkovuh3loYJDR+EiEBIlOUAPIfLUXrw7rMyex8CgV0V90y7796tT+rv4+3Uh43zNpz21KrP1t/Q81kt0w3E2PjGS55/axP5rpnSFC4qgSZWAECPgw9CYaAQAKaiVrR+KTEu/ZYQCG+o+NY3ftpeN19/v8/nH+Kh7nXP1lxa8rDM2CNAo/PUy+feQuaZ4eSD1CUo+CAEBBICoBx2uaVyk9yK8yZ3npT+0BcItJTdtOSRJ5Nr7DKHri2Tboy+mH6JNOJT2k98G1/1O1ODxt4HiSkKy/4REIi3IuiBxuVF+1XNHHdm8SsiN7MJ/4L7sfpTPftl1B+q/IGzH31VrXI4rhaN26bdEvo4/e5SaDz2F5HFOYm90CHQB7HgMLlmCMq5ED8oevqU9gub52i5e9NX/1yx9KCu1VnPwRMAjMOtSP9PBcKbqu9/PD7Qu8Tn4qsrF/9l1w1WvwLQ0LNXTHlnfdYD9wj78bigoLCzF4EaJAEgareltmsf5AxMiT5x45b/bTgzOduc2Xhy7f9s+mlF8eFZz8H38BVj27zM/kfRc3d/NPCUqHvwGWv8E8aO/reYRs+k1yZR2RfL3geRsiZc7Hdog4qeBLamq0sf5CU8iaVnblsSL9FI/UtE275ed8EKXJ/l6N/G1FKV0UE34hNWLEru63XL03DQxlEfp5UGzHDJJF+nQbrA6RoFBIWbj0KMHnEnrhvVcV5q/kUKjWR45wWnjH4zy7+8Dk1lofL0T3Vz7P1914AX4f5W86O0IyFk8aScFFrBQ0QgtkPmwp3V9DL+UNI6P/0Ic0rFhJosR78DTVFE04KHEevoGrPPY8+AUKIh8ylsjs5y0J7hdI1MEj4IgU56EA4+iHD3Uq4FLbSwO022X1gxYXn+I5rIo23PulgZuVeqLt45lNPlGALFHIBTDeJuIGsRzu4sW5dx9m27GuqynIMqjIkjzfDTsCKlxS37PPaf0LBKM/MZGPnb+/XJqx0JTeFlAAIC8erRewHu6yh5JNzT93yBZOUjz7TNzXIOZmFCm5mxgIeoiM7d95sAf8A1ZeH56Z9qndie5aAZACQEkgQgHRaOcyOei3Akjlg65jehmNjzWnnQLP3jvAePxd1ZzsGB6G5DRj/CCm8/VBu37uPYx/Dy9K6Z6Z8a8da6kixH7R32VX2YR7G8IQmv5oMsR33XgT+uWVL2anhreOvoN2q+M/fbH7a9mPUc/Bq3mRM/TBeIRvfJC2feNeCR12C33HmmOan//SVQtP2w+lOyHrc3GJA2LWQpp7AP4iEOPohbXsK8jit/d+Dpi4876biZi2+/60ttm3Iwp+QsAOYKI22gQSM2u/7SS0JnD3Dkn3DQIe3nq8yrtP6w2oGOowCNGYUERrEAL9dxvR3QaE8t6ff5HEV/Ps5Hz7uNm5L7p726Llsv/OObm/96vv6T7XGzUDX+/WvjGe9wSVQt+36M/qYNFARCpAZRtqua0JhyAwA/weO1xS9lNrKSE5tunnV6WB5hc8w8lE5Y/+POs1TaYQKR7aUvLMCDfmdqkNhfJY0Ev83rDWE4+yBU5oN8hCJd9Wi4xaYfMrfujueuHTde4199Pl+MX4UCR63/XfMlVjT9XAIlL9z44U9IPH8BJx9Eq9oEBR+EQBNLgs68DydOx39Bvfnzp+MXpedEI1HTeNOLp0z7W8nLX9pxaedM69HI42W1B/xsccep8SmZKhAIN07833MS9/qdpWFjsZPuDcL1FyORIlwXm3VX5+e6qzMlooo6ju36rNFQv+2FJmUaJfEJsWpVat80kSj/0w9e34LL/c5QgUBAIAkAUti0V136IP5yBZ7HCatq7kjcYgYzJQJYAas6US32pu0RGPX21P++0fwI3/Y7Qy6w90GKZJJAE5lAH8SEgw+iBAV97+VEnKsX/b5i6UBFrgdc60OgqGHaf7y+eSGhB4OzDzKZfRAPoXRHOLIAb7ROuLF42dAKXSDYUf6jV5++Gg/7nRFPoHFJiQiERmHuix/gIqyunfXNkpcN1zkSCLVV/ejSP9yg7/Q7Gx5BY9k/AgIRcFrd3b0P8jA0jtlv/pIxD5Q/uP93Fs5ZL67NaV5uwQ1YtWbSpeV/NVy8AS8gMGpb5ZIj7nwr+T85jdcLHHwQ3UNidXcCbAJg/AK6/z9Dz79Z4xZXZ7oGWiw8o/S9gCW11AFVumHaeeeIbL/Lm87VOBJnVNXcGm0WWmjs45/QQgessuWHHn+XpOmdX4vL54zenJGvnaX7UehBEqlBvOHvOPiwdb/uOMCSCgqW6JjR9MtNn1uD5TnNz51YjjGNp/1wzoUVz4Z6BlquOrUPVvGWyT9d+KVV/6hTD+U0zmxDYTYIiWFer3yQq3Bh8NzLuqb3VvgaAt0Tt3/t3Neuyfn6M3/AKcl5f5/1xvsnNV7ctShRrpG5qJyAYUbXlz05+eGL16xQcLVhKeMVBAQSB2DI4fsgf8ey8t2LdP8ToPMgPX6/2rdznqtnAJzR9oVHup9+5lOJY5oWif3McbFiFQCgQ7FIq1VXuqboxZlvfHnrv9SVOY/OW+x9kBLDIuCDEBCIBSASsnkZS7nbBnoHRCCZMcvIiIwq9Ws05Uk8CXTe9fo3Xv95aMPEt6q2l0WLA0Z3LNg+v+WQbcVtt+r1JEZ6BsbJB5kUSqDH7+D2CQGBeMU8lMbe29GStoSJ2t3V7O87Qd/EN4EEtmDLJ59txd8B5MvwNmUIdNIBb26Uk7GsJfJMfwdCouzFs3cSWv8gj2AfxCMEANNu6oDQrkZCbsEcTHmgaJncc2kEJIrfrr7nlxaVRTxp4uSDdFpJv0MbBAQEEgEQsytLl+tiAWuxsa7yirEPh1sNK6BCHWP++qkr3vyI+k5NIx2H+SC6nsT+IAXUB0nVRUdtrLny2XnF82Wga+3+75gdwA1+h8WMYAgIRAD2b4APqQn7ONCFlVgJAB/4nbWChsJ0KRJNrBiAgJ2QNYnwCx5h74OIciM0hLPlGgJ3mAIQDtp9IWD4HRyzT6S9DyLGhaJDOFvuo2cYxhEiAqEwYs64g30QjxAAknYv7bj0QRh/UA4+SLtJYY9CAqNYUQBxO4FItz4I4wfawQfZnowN5XQ5hkANol1/wVCAQgOLhEC89UGYkQKN5xuBJlYMQDBgPx/Evb5PR1G0be7WuVpMXhv98G/dmnWWZYTt4gFCjA008nwQL0j5IDbtVZfzQVJzCOMzV97QcaqqAGpbR//jMz8TH5yJv/mdxbxGQtr5hKIy2IGR/zYWAYEAXlXHh+KkyavuaTs+9UATVfHzE9OO+Lf6DVyL+AGNtfkJ9EEAb7obv8BbWPtvu4/rvTAaFtoW1V11q3Ga39krSNgH8QgBIOHgg7gZ5n0Ex5d3L7ZE3+eWQsvxd1T6ncP8RsGuhta62aQwzEugiRUFkLCbDyLdLR3zAUQ0MSnjJKMrKuVOv/OYz2gom8pC60b2QbxBAw57FLo7z1hMMqMZvUKViHdRuFD5B4UGFgmBeLUu1on4VVvpCtnvMIGid0VDnd9ZLEgodNFJCKQHQMiuKajg6nX3e3FlYvTvw3WfKEsg2lj12z/HzvM7i3mNgNTaxgcZH+TX3T1Bw0EgWrgKX+A4vPDmpOuK10stISF10ZZpN/7qpe/im35nMa+RtlW9EOWBsN+hDQICnXTAq+r4IbyjIo8e8MG20+WBEPH3Jjz9yPvPKF7S0x9o+CBEBOJVh+59QH+wpmLt06Ekzkq06hl+Z6yAoeGDEBCIBBC3HebVuHUI55sPaMSBr/udsQJBQQk7H6QxOfIXHiXRB4nAacIUlSX0Cxttu8q41s0kJkwREIhXPggzsqDQwCIhEEdolDDjAI3nGwGBxOC07I87H4TxB+ngg1SHivwObVDRj3g0gKCdElz6IIw/CAcfpIQXjvMOGtUx4wYaPggRgTCMPxAQiAEgbrMDG6S7+SCMP9j7IErtSHT7HdogICCQMJw20GEfhALaYbfVdt5AxxvYB8lPaIzSUxEIw/gCAYHEAUTtRgQ1iVfJCh4nH2RKuNjv0AYVPQkMuzjZByGBdFg4bpSk8HgjcIdJAMq0eR80qkWT38Ex+6QNnRGR8SaE0N0mhcYzARGHEEBRoidtmUqNxnlXRySFN6YLmpU4GjXT4mP7fypQpMzEaDT7Hd4+IVCDTMd0zNXp0zM1Og57/Yg7cLPf4TED8gCuGdX6xUQk/fMqHKEP9Tu4fGF/nHtWURd0/39Sl76yaA7wrt/hMQ5onIyfhKqXhLpE2rUTes6zy0rv8DvAQUBiMPpUFE1d8erW6vTQBYpXV91x0PL1DU1qqgEIdOjNClAYKyZJDYE2XasEFCaIcVJDYJeq1xIKk0WF1BBoUA1aQmOqHC00gHrVrCWA/eQooQFssXYDMDBDRoSGwmarC0AQM2RIAKbeqOIAItjPCABI6A3KBFCMaYaAQI/eqBQ0ykSNBAQ69ccKUKgU1UOKbpvapSWA6bJYaAC1ql0DEjNkVGhofNw/OmyyYv2i26iSAEZhep/ogNEZ0U2SgEC73qIEFMaL8VJDoFlt1RIK1aJSagjsVDu0hEaNLBMaAvVp0W2xji1aP6fu/OaLzOL03kYEC25q+HGt3zfWICAhkHvwdWPubzdclj6tUAAIJoN1sRYNIQABDaUAQIg9aa1SPqOQQkNA7RlwlELYpAHdm5YCzmkB0ZtWGqm07a/vK+0QnX20g42uT9rn6IIhY3JsjN1LiWOaP7u4ftVbft9Yg4CEQIADUHPs8sfbR9uPexDJRAGiIWzkEcCMh++5bFmcQv+RwCgWAJyKw16vfbrrfPu3dygMFxYqNjuDoLx17n03xt/0O7RBQWRK3nLUmjWbdh3bXeF3JMxwiajpv77zwU613O9A8outAM76WmXGeAj/o/UvqBe8fOvEy/2+nQYNkRoE+DW+giPe2ZTo+UwiOPyzMf4QxMQ3Zl2xejOdTe/ICARYDa1qVgbj8SO6KUxmZjIIY8Yb+13WvZZS44qQQICNOEOdsKprTcf05ASTh65IIVG2e/o9p9wQ2fCY36G4guBtdiXk1He/Wnt+y+R4gGcUjnQENEIo6piwfPY9855vTNzrd0Cu4yfIClQav5y24fTtx3UtbArJUUawz3B7KkefjC66S/eWR27TeRqdVmZPqGdiU/gfs58+/I3bd28DPUgKJMXF+HLJ/ZXJsRPnqkotRBKAhqFTzo4SSYg+aUuYENAIaAMAhAUTAloHUo1MYcKCAHQg9fqmSEJBADqYKiGRhAIg9qYT0ACETvWGtEhCA5A6uDcN6Iz08KLTOrgnut5onaLrn7aLzi5aT6MT0EERS27+aP0pnTfsbLPG+H27MAzDMAzDMAzDMAzDMAzDMAzDMAzDMAzDMAzDMAzDMAzDMAzDMAzDMAzDMAzDMAzDMAzDMAzDMAzDMAzDMAzDMAzDMAzDMAzDMAzDMAzDMAzDMAzDMAzDMAzDMAzDMAzDMMyI5v8B53VMk0O7O/YAAAAASUVORK5CYII=;" vertex="1" parent="swZepkNG1poCpX0fvXZE-10">
          <mxGeometry width="100.5" height="100" as="geometry" />
        </mxCell>
        <mxCell id="swZepkNG1poCpX0fvXZE-5" value="ZKP Prover" style="text;html=1;align=center;verticalAlign=middle;whiteSpace=wrap;rounded=0;" vertex="1" parent="swZepkNG1poCpX0fvXZE-10">
          <mxGeometry x="20.25" y="100" width="60" height="30" as="geometry" />
        </mxCell>
        <mxCell id="swZepkNG1poCpX0fvXZE-16" style="edgeStyle=orthogonalEdgeStyle;rounded=1;orthogonalLoop=1;jettySize=auto;html=1;exitX=0;exitY=0.5;exitDx=0;exitDy=0;curved=0;fillColor=#e1d5e7;strokeColor=#9673a6;strokeWidth=2;" edge="1" parent="1" source="swZepkNG1poCpX0fvXZE-4">
          <mxGeometry relative="1" as="geometry">
            <mxPoint x="661" as="targetPoint" />
          </mxGeometry>
        </mxCell>
        <mxCell id="swZepkNG1poCpX0fvXZE-17" value="4. Monitor Task" style="text;html=1;align=center;verticalAlign=middle;whiteSpace=wrap;rounded=0;" vertex="1" parent="1">
          <mxGeometry x="770" y="60" width="130" height="30" as="geometry" />
        </mxCell>
        <mxCell id="swZepkNG1poCpX0fvXZE-18" value="6. Result with proof" style="text;html=1;align=center;verticalAlign=middle;whiteSpace=wrap;rounded=0;" vertex="1" parent="1">
          <mxGeometry x="570" y="40" width="80" height="50" as="geometry" />
        </mxCell>
        <mxCell id="swZepkNG1poCpX0fvXZE-21" value="5. Fetch Task Data" style="text;html=1;align=center;verticalAlign=middle;whiteSpace=wrap;rounded=0;" vertex="1" parent="1">
          <mxGeometry x="870" y="420" width="80" height="40" as="geometry" />
        </mxCell>
        <mxCell id="swZepkNG1poCpX0fvXZE-22" value="Sequencer" style="shape=umlActor;verticalLabelPosition=bottom;verticalAlign=top;html=1;outlineConnect=0;" vertex="1" parent="1">
          <mxGeometry x="20" y="310" width="30" height="60" as="geometry" />
        </mxCell>
        <mxCell id="swZepkNG1poCpX0fvXZE-23" value="Sequencer" style="shape=umlActor;verticalLabelPosition=bottom;verticalAlign=top;html=1;outlineConnect=0;" vertex="1" parent="1">
          <mxGeometry x="100" y="210" width="30" height="60" as="geometry" />
        </mxCell>
        <mxCell id="swZepkNG1poCpX0fvXZE-24" value="Sequencer" style="shape=umlActor;verticalLabelPosition=bottom;verticalAlign=top;html=1;outlineConnect=0;" vertex="1" parent="1">
          <mxGeometry x="180" y="310" width="30" height="60" as="geometry" />
        </mxCell>
        <mxCell id="swZepkNG1poCpX0fvXZE-40" style="edgeStyle=orthogonalEdgeStyle;rounded=1;orthogonalLoop=1;jettySize=auto;html=1;entryX=0;entryY=0.5;entryDx=0;entryDy=0;exitX=0.5;exitY=0;exitDx=0;exitDy=0;curved=0;dashed=1;strokeWidth=2;endArrow=none;endFill=0;" edge="1" parent="1" source="swZepkNG1poCpX0fvXZE-27" target="swZepkNG1poCpX0fvXZE-7">
          <mxGeometry relative="1" as="geometry">
            <mxPoint x="250" y="-30" as="targetPoint" />
          </mxGeometry>
        </mxCell>
        <mxCell id="swZepkNG1poCpX0fvXZE-41" style="edgeStyle=orthogonalEdgeStyle;rounded=0;orthogonalLoop=1;jettySize=auto;html=1;endArrow=none;endFill=0;strokeWidth=2;startArrow=classic;startFill=1;fillColor=#fff2cc;strokeColor=#d6b656;entryX=0.558;entryY=0;entryDx=0;entryDy=0;entryPerimeter=0;" edge="1" parent="1" source="swZepkNG1poCpX0fvXZE-27" target="swZepkNG1poCpX0fvXZE-28">
          <mxGeometry relative="1" as="geometry">
            <mxPoint x="115" y="180" as="targetPoint" />
          </mxGeometry>
        </mxCell>
        <mxCell id="swZepkNG1poCpX0fvXZE-27" value="Task 3" style="rounded=1;whiteSpace=wrap;html=1;dashed=1;strokeWidth=2;" vertex="1" parent="1">
          <mxGeometry x="55" y="60" width="120" height="60" as="geometry" />
        </mxCell>
        <mxCell id="swZepkNG1poCpX0fvXZE-36" style="edgeStyle=orthogonalEdgeStyle;rounded=0;orthogonalLoop=1;jettySize=auto;html=1;fillColor=#1ba1e2;strokeColor=#008BDE;strokeWidth=2;" edge="1" parent="1">
          <mxGeometry relative="1" as="geometry">
            <mxPoint x="35" y="540" as="sourcePoint" />
            <mxPoint x="35" y="440" as="targetPoint" />
          </mxGeometry>
        </mxCell>
        <mxCell id="swZepkNG1poCpX0fvXZE-32" value="" style="shape=image;verticalLabelPosition=bottom;labelBackgroundColor=default;verticalAlign=top;aspect=fixed;imageAspect=0;image=https://icon-library.com/images/smartphone-icon-vector/smartphone-icon-vector-27.jpg;" vertex="1" parent="1">
          <mxGeometry x="-5" y="570" width="80" height="80" as="geometry" />
        </mxCell>
        <mxCell id="swZepkNG1poCpX0fvXZE-33" value="Client" style="text;html=1;align=center;verticalAlign=middle;whiteSpace=wrap;rounded=0;" vertex="1" parent="1">
          <mxGeometry x="5" y="660" width="60" height="30" as="geometry" />
        </mxCell>
        <mxCell id="swZepkNG1poCpX0fvXZE-35" value="2. Relay Task Data" style="text;html=1;align=center;verticalAlign=middle;whiteSpace=wrap;rounded=0;" vertex="1" parent="1">
          <mxGeometry x="230" y="470" width="120" height="100" as="geometry" />
        </mxCell>
        <mxCell id="swZepkNG1poCpX0fvXZE-38" value="1. Send message" style="text;html=1;align=center;verticalAlign=middle;whiteSpace=wrap;rounded=0;" vertex="1" parent="1">
          <mxGeometry x="-130" y="480" width="145" height="30" as="geometry" />
        </mxCell>
        <mxCell id="swZepkNG1poCpX0fvXZE-43" value="" style="group" vertex="1" connectable="0" parent="1">
          <mxGeometry x="500" y="151" width="100.5" height="130" as="geometry" />
        </mxCell>
        <mxCell id="swZepkNG1poCpX0fvXZE-44" value="" style="shape=image;verticalLabelPosition=bottom;labelBackgroundColor=default;verticalAlign=top;aspect=fixed;imageAspect=0;image=data:image/png,iVBORw0KGgoAAAANSUhEUgAAAZAAAAGOCAQAAAATap2sAAAsaUlEQVR42u2daXwcxZnGn6qeU5ZkyZLlS7Zs4wvbxByGYAKBcJs7kBDCtRACJCQEkwQI2RwbCBsCOXa5NglhCRA2IRhC+AHhCDiAAWNDzGnjC1uybMuSdVnXHN1V+2EsI810y2qpZ1rvzPv3B6gZdc9b1f10HU9XFcAwDMMwDMMwDMMwDMMwDMMwDMMwDMMwDMMwDMMwDMMwDMMwDMMwDMMwDMMwDMMwDMMwDMMwDMMwDMMwDMMwDMMwDMMwDMMwDMMwDMMwDMMwDMMwDMMwDMMwDMPYIPwOYHhowFhbXBdKirACAFPEJQAEdCqdFAkJAEEdUgCQkEkBACEV1AAQl6YAgLAKaACISUsAQEQZfdICYWVoQIuYUAIQOqKlBrToEVoAQke10IASMaEFIHVECw1YIiYBwNCRwUUnknKg6AaO1uvoHKNVIT2IshRJlKo53ZU9tG8yorFrQFxRmThk4+E7xlbMMcqFoU1oAIYIAACUTgKfpLUFEwAQEAYAaBMWAIgA+qeDkACgk1AAhAikpYMQALROQtukpQimwktLqz3RfZLuFx0s3T+6PdEOMTrohG10QoRyGp3U8c667k0Lt4nnF299vuf//L5phgRBgazDLPnNmau/tP2slhlmSQyqTyZ0Wsaym87trw09utxHq/f8okAAkWR0V+XLs/9y0gs3dW4Hk2Xm4LbRi66evCGihAb/I/FPaEOXdc5fevoCLV/x+wZyCbEa5GyEZ637xdoTYhE9/JMxOSWAsVsOum3GvTvNR/wOxQWG3wG44VOIz1p738cnxAJ+R8K4R6GrrOXoXZ2z3qrQm/wOZtAQEsjRmDPrg/u2HZn0OxBmyMRC8SN155/fqtT/8DuUQUJGINfg06P+ccfmxSwP2iRC5qffW/3Wpnq/AxkkRASisRjdX/lgSQ83rsjTHe2eetIzk7rW+B3IoJB+BzA4zsTVk7d8vSfsdxzM8NFoXPT6eUtBY5iFyBP5X2j6/K4DVMbnAqlRd2Zkkro2/a+PRo9Rf/Glfz5np9/RDQYSArkeEyp+c24so7YTMBIlq8teatwct8IGAFg6YQGAIUMSAEydtAAgIIOptEoqAAjKgASApDIVAIQMQwBAQll90hoJS2lAIBSQsEvHLa0BIcKGAKCQMFOWdCiV1nELfdJDjS5oBAaIDggbUoy86ExVUSI/3XJMbHz6ddNond980sYH/b6v8oYDcNIBZbsy7afQ7sk/OmfsG4LSuHrh8BcAS4KHHFXymsywDgN65t0aT/kdYr5wAL7w3eLMQraqb/r34Dl+B8cMwAWoxiGfKlkrMh5u8z+6bdINfoeXL0zAvNvCGUVc/P5JU87wOzRmH1wAYMr1gYyrN77hmGmL/A5uEBAYxVqPHaiX6f6HwNiV126z/A6O2QcP4zhMfS3anP55m6gzKPjpBARiAtDh9JEqgeLtJ1lH+R0cs08OxP7Ncnf/zzRMWR5WQzthTiEgkNRUhsyhXK0EhfALHgGhdMbl05AkXpQlcIcJAJbdw0ZodkAIoKFF5lvjWncr0+/QBgEBHyQMoCdh84UAKBRxoaOghLARSF28x+/QBgGRGoTJP2jU/lQEop2+YJhsQkAgcQCG3VvHmjVCAQFh+4ArNYJ+hzYICAjEAhAJ2XyhBIUuVMEjITMHsSDlxFCR36ENKnqGYRwhIhBuSuUfgsRVJSAQAcC0e6dEaFDwYgsde7dK604r4fpcuYdAIz4CIGY3FV2k+ifMyMbJB9maiPkd2iAgUIMw+QmFBhYJgbAPkp+wUegRMQABu6agJhF+wWPvgwgxJhAayulyDIE7TAEI23lKSlBZtaigsfdBhKgKRv0ObVDRMwzjCBGBcHcj/2AfxCMEgKTde+3sg5BAOfggbWbc79AGAQEfJAogbicQyT4IBbSDD7IjScEHISAQ7foLe74AEdSzEYQGIPfU772PN3dpsbd90JuWeyJKVWnDTQ8vusxovYxOYDt2LvXgulJoYJEQiFc+yDNABR5AtU69Jp86rd57quGl9+xC1humu3Tv2dLTIyO6/mkR0D/Ffw3viqag4YMQEEgMQChoMz1TuetCdQMSlaKKxoUZqQjoUW6PkNrOB6kKNKLT7+zsEwKddAUgZGsUDsUHYXkMD/flJ22XFxeiIhjxOzODip4EfFvnHzTWpCEiEBodOsYN7IN4GGLCwQfhYd6Rj4K2kYLWzSSGeQkIJAIgYTcfRIKNQgJoKNuF4xpNFognaMC+jUWhCcs4QqGBRWKYV7j+wrNfKHiy+Qyi8XwjIJAeAOFAd+YXyotNeqVlbFc9urei2tMY0Hvabg5p3ceCGzi9x4PudQD3Wm4DprVOi2Zf6SxFJyXGmqOHW8ICUmsbH2RCsAEdw75+2YaAQDSAoIMPctuwzx5tOuLS7e+1o1sBwBgjIjSAViumASEqZEhoaLRYCQ1IUSGDQkPrXcrUgCEqpRSApZuVpYGgqJBCCCR1s1IaCIsxBiAQ1y1KayAqygxAoEe3WgAwSpZKQKBLtSsAKJElUkOgQ3UoACiTRVID2K26+kXXZvX0iQ5oTouuWSX7RKf0LtvoQqLCAAQSurlfdDHdsie6BcE1P9ny1eH286RtDS1EWaCVBeIV2auOhVW1a1zTH/ekWtK+Td/3ZVdauiktnb5x64609LZ+qfRfc5sebnQNA0b3bfy7nJ1Fq5t9ECJQuEx+oADunlEQiITTMK83PohghdhiAJ6MoysoYeeDNCZ5+wNPiMBpwpQn108LXfCPSVsk+rzQOwy07SrjWreYFBaOIyAQ9kHyExqPJQICYfITGs83AgKJAYjYLfujvfBBIDR3QmyxsNcpGRbSwQep5u0PvEEDCNhuoOPNLrfcBbHHq1Es4eCDlBgUFo4reB+k0NC4Dp8xlIAJnONzJBSuKhGBMF5wGw6Sh32q8Qt37a+NqvUTHr/zLctc4ndQIxwCTSwDQNxuRFBqL7aB1kIVRhvrW1hofOeCNY/Xfz9+duLM7dd98NgvrxwXvN3x77Prgyi1PdE9hLPlGgI1SBhOG+h40/QqDHkAj+DlIzf+rGdSqtQUeiZu/8mPa9c/dTnutf377PogwG4r6f5kOYdADcI+iBfcjBXBhotjk3pb/hqAWbHrq9+O1vgd2oiGQA3COvCC5/ByZfKQvmWpAZjzmqpjG/yJiEbNTaAGiQOI2o0Iak/0XSA+yC7sDJoZK1rJSFdRu8MRJrLrg0wJF/tdKIOKfsSjARh2cWpv1sUoDB/kEHxud6Qu/VO1s7JhssMRjk1blzj5IEWSQPOFgkAAbmYNnwtwR1v0qYD5yc0qIHXxM79t/KdPEdHwQYgIhBkup+AwHPFw5RNG7/RcCJS+OO3eo/QKnyKiIA8SAgkAiNltJcE+iCtWorbx4Gurbi/eFOgJxIq2Vt190Nde2/p5x78PAJ74IJaDD1If7/K7SAYBgWZgCIDlsLo7+yBueB3fqz/yB3+9r2sqZLDu8x+L+Ev4zoDl4oUPAgcfpEt58HjLOgQE4tX+IAxwK2BiAzYAwDt+B0MCAk2s1K4tTL5hCApXlYBA4gAi2fRBJFdFdmTZB5E1IfZBPCOrPojfmRuhZNkHQVhS2OWeiED4Js4/2AfxEgplybhCeTNElmUICCQIoIfng+ScAADtwcJjTj5IXYKCD0JEIIp9kJzjXbnY+yAxRWH7I8o+iCcIBArjbUXXhAHwAB8BgVhweJp5cvHipU9c1lbP1Ugm38b1ctTh2aujg4LCyooEBJIAEA3bLJTviQ+SKE0s8TuHIxUT7cM/iYMPImVNuC5jvfqRB4E+CADYmq4e+SBMdnG6RgF20hmGOkQEYjtkLmhYTYWO0zUySfggBPogIQA9dvNBBLzwQZgso6BEZmtKqVoS80EI1CAGHJ5CFJqwDJzqkKSmsMs9AYGwDhj/ICCQJADpsHAci4cC9q88RCSBm49CHyQJIBqyWaZSeRM+DxY748UwiAFp0x2XckpoCwEfhIBAADhUFV7skx7qnPik0YQ9Vpbo3dRb7SNt6VRQvVMa+qd1qnktejcwcZve16/nKDphtBzZelC2xpokCR+EiECyV5Shts/+/IH3+jQ1hedjx+lnHCgtoDPSAx3rPX1/Qc76eVvWBEKj5iYiEMtuwENoD2oQIKkvwP9RGFDJMTfjB56o0b6ZphHnt3m9IQwgZvdemyc+iOb5IA4EAO3Z/iCZ20CrWhL7gxAYSJDgCYW+kcWCt0g46QQEIlx/wTBeQUAgCQBG1nyQ7Pd6qeLVqiZOPsgoXt3dG0wAkbDNF0p4si4WT5uzxwQ82WfbyQepDo8awtlyDQGBMPkJjRYyEYHQKEzGDTR8EAICEXD2QbxafLxQWAqNyyvnLph94MXjXxADu0he3b4OPoju4dXdvSEMh3WxvPJBCmZVkwr8vnTJeR0XJfeDbKhb9pfq/53R8i18y+GvA4CGB16egw+ia+M9fhfIICAgkEK5fbPN4Sgbteqm9sutIg1AjOte0DF76vX3t/oVD42Km0gTy90XTCYaK/DhWbsvTckD0DBDXRfuvng1TvU7tBENAYHE4bS6O/sgg+cy/Meoni9apZ/kVsOMNH3+a+UHOxyReqV3+L8sHHyQUiPod6EMAgICseCwPwj7IC54E0+UJWak51RMbZy42eEIyyMfRDr4IBNDRX4XyiAg0AdhvCCCiJKZYxpW0AwP4WyFA4EaBODuxvA5Bte0hFanl6NYW1U/2aeI2AfxCAHAtBtuFJ68jU1lOGWY/BJXxcf+Obztk5tSINQ6/qE7u2odjpAelY2TD9JpUVibl4BAIgBiNlPSIeDBMH3h+CAzMPvF8psj9RICAgKh5km3nfzklbjf4e+N7M4H0VtJzAfhPkjBsAInm0ff99H62nPFAiHNdROXnvCCGfutb/HQeCwREIgA7Kt6GiU8gngWMO9cNv6VFWOUWNBqJb/iaxHSaNkSEEgMQCBg05jSXrQQBTSJ1TW84mrAQlPq/y8b8C+VR8O89j6IEGMCuwgsHUugD6IAhO08JSXgwUbCAoLGsyzXWIAntbS9DyJEVTDqdxYHFT3DMI4QEUghNYIKBfZBPEIASNo1VtkHySpe+SDKwQdpM+Ouz5V7CHTSowDidgKR7INkE698EO3gg+xIxvzO4iAgUINo118wFKDxWCIgkOz6IMKrE+Ud2S4VGs83Ak2sGICgnQ+ivNC3lh0lu0uO37MBSW97ee+y6Q7pvcum7/lv//TeZdL3tFDcpvf167mJ7gXUSxUZdgGnxtFtfJCxgUYCPggBgaR8EJv2qvZi+4NY5fI7ZRd6H2ifPDb7p3svsLu009m8Tg8tun1G+47omTb857yEhJ0PUhnswMjfpZCAQIBsVsdWuG2h37kbuWSzGURjj2IiAslme5jCZcpH2AfxCAEg4eCDUNhhotBR0DZS0LqZh3m9IQogYTcfRMIbo5DJKhrKprLQutFkgXiC4yrj3DYiDYUGFgmB8LpY+QmN5xsBgfQACNsNJih48bo7k2UEpNY2PsgEft3dGzSAoJ1AtCfzeZgsI22reiHKAhQWHCIyzJu96ljoYLfkvr49IhmyQsM/jT3sg3hI9rob4V2zf2RukXtWIO19sbd3kqHH6b1zF+3Te/8aGDidnejS0hpB2fCVnecU9tODgEAkgLjtMK/GrcMvgNj8V+Sah/zO5AjkNlwnZh4z/PMoKGHngzQmefsDT4jAacKUFz6IR5Ou8hAL3jRtte0q41q3mLxwnCewD5Kf0BilJyAQR2iUMOMAjecbAYHEAERsl/3xwgcR0AWx/YF7LEAIr7Y/sPFBqklsf0BAIBpAwE4J3vgggsqzLNd4uoFO5qeixMjaCLKHEBAIwLdwPkLDByEiEIbxBwICMQDE7UYEpeZtoLOIAWjt1fYHmZ+qHbz9gTeE4bSBjkdNr4IRiMZUHFW26uDgwTASH8x686ldv8WVjn/t6QY6NkXcbiXdnyznEBAI+yDe0IUoJs1/9oftJ6nRgOhuemXhTVe+cSKe9ykeGo8lAk0s1oE3zMOh05t+3fIFc7SCBauo7eQN/33E/Jfxgt+BjWgICCQOh22gtRcVoBCF4YP8Cpux8YKuz2mZGj3S0Og4dMOVDxkrHY4ws+yDTAmP8rtQBhX9iEcDCNjFqb1aF6MQBPIPfLkieZwy+uZVI3b0MxOaBiqVLPogRTLo+ly5h0AfBCiMWzi7bEAgGqtK/1SWtZbH6v2JiIYPQkQgzHCZhpJYY0v6Soaqrbx99ECHZfEepiAPEk0sA0CMfZBhciyW7gq8KPsNlwtEXz1u+2SHIwKATd/BPZaDD1IfH/kLj5IQSBiAZWdYsQ/igu9hMiY9GF7Z2yMQkCh6u/p3F5k1Dkc4rqrvGnsfpEuN/KWrSQiE9wfxhn/iX5umXlP6ZKDLgIFAV+mLY5dseXc6vuh3YCMaAn2QrM/4K4QKBMAMAG2rDv5K82daDrKMqvdKlr/a8CPc7Fs8BonttwkIJA4gGurM/MIrH6SAtoHeju3NeBJPAjuwrydDln0QWRPaila/C2QQ0ZPAYB8k52TZB0FYUlj2j4hA+BbOP2j4IEQEQqIs85EslrvyYgw56xAQSABAD/sgOSfg0XwQJx+kLsE+iCeEACiHXW7ZB8ke3pWKvQ8SUxS2PyIgEAoVMZOvEBCIBYenmVfK4QrEFu8eTPYFHCThgxAQSAJA1G6lfG98ECKbSeYeAcCLe9jeB5GyJlzsdxYHAQGjEHC4UJ7sk26F6w8tGnOy6F1fPdUh2TOr6JO06v1JLQAB0T+912tMTb76JK0k+qaFEn3TvWd3m85NdC+LN2R88vDrESeNBbxwIbMOEYFkj1jlm3dICm/N+YFIRgu9B0hEILZD5kJ7UINoGS/xO3f5jZPETBI+CAGBhAD0xG2+EPDAB2GyjYISmU1kpWp5Pog3GHB4CnHfmgj2NUXSCxcy6xAQCOuA8Q8CAkkCkA4Lx7F4KGD/ykOYxCgWgRiTAKJ262IpEl2ogseAtOmOU/FBCAgEgENVwfUHZSQ76d7hVVGyaz48vC0/CteCSBvFflUTdz6IBEysQ4egMHgycgmIRnfrBNhPjNJIkHibl4BAwnBYF8ulDyKBJpwjCmgGejYQ0HF3ArH3QbSq5f1BvEHCmzdLTUCjw+/cML1YJJx0An0Q4foLhvEKAgJJgH0Q2tj7IEW8qok3mHDyQQSFFmLB4+SDTGYfxEO4qsg7aFxSIgKhUZiMG2h4UgQEIuDsg1AYByl0HHwQ3UNidXcCjfgwHNbF4vkgJHDwQXRdnIIPQqQGYfIPGi80UBYIK4fJOgQEEofT6u6sERrY+yClBoVdbgkIxILDPunsg5DAyQeZGCryO7RBQEAgDOMfRATCTan8g30QjxAATLupA0ITGQkpbJx8kE4r6Xdog4BAIz4CIGZXliLVP2FGNk4+yNZEzO/QBgGBGoTJTyg0sEgIxHFDexolzDhA4zUhAgKJAQjYNQU1ifALHmHvg4hyIzSEs+UaAneYAhC285SUAIUpN4WOtPdBxLhQ1O/QBhU9wzCOEBEIdzfyD/ZBPEIASNq9184+CAmUgw/SbsZdnyv3EPBBogDidgKRQ/NBdOpYAYtrplygHXyQ7UkKPggBgWjXXzjzNVyNM2pWH2/MNwLmuqnPXrpxB571O4MFCo2HEwGBeOeDLMJv8Pfjd/+s80AroGGotrW7/uP5x76jH/E7iwUJ+yAeEQMQtBOycht+ExYsbLm7fWEyoKBhyo55m3914lGP4FG/s5jXCNvFA4QYGwgP5XQ5hoBAHH0Q7c4HuQJvGo2XdM/6pGOvEZ/c/I0rw//jdxbzGglp5xOKyiD7IJ7hRXW8DMeM6T6q/7iXRschuyeM9zt7BQmNNWkI9EEAbzp0WyGCybL0T41wqJTIUyLPYB/EIwSAhIMP4maYdw4OiY/emf6p1dHStMvvLOY1CtpGClo3mxSGeQkIJAogYTcfRLpbOuZ0vNoy6jnZ52IJSJS/dFYTBcOKLhrKprLQupGED0JAIBqwb2O5bMLejMP0/veXL++9WgICo1ZX3fNT8zm/s1iQUGhgkRCId+tiXY/nPl7wjcql0baANhDuGPPs+CvWrBlN5FLlGxS66CQ66T0AQoGezC8UXL7u/kVoVL932KXth74/15Jz109a+VjrIzjP7wzmOQJSaxsfZEKwgcCGXwQEouEgEC1cbeIJpCqdbZ1YhmXAm6BSzdNG2payEGWBVgICIdDEAqhUx4wbaPggRATCT/p8hMJVJSAQCSBuO8zrzgdh/EFBCTsfpDHJ2x94QgROE6aoLKFf2GjbVca1bjETQzldjiEgEK98EGZkQaGBRUIgjtAoYcYBGs83AgKJwWnZH7c+COMH0sEHqebtD7xBAwjaKUELCuEXPMLBBykhsXAcAaMQ8LI6vgrTQ3+a1VWjdLj+3PW7Y7f7nbWChYYPQkQgXrEQq2v+dn37mT1VQKTlnqeqb8P6h3CR32ExIxYCbRQDQNxuRNC1D3IYxk/YdPfOqzonqaAV7B6387J1vz+w5ud+ZzDPsfdBlNqRYB/EE8Jw2kDHnQ/yY6zEu//WeoqFVJNNQ6H7qNarXpXn+J3FvEY77LbaTmIDHQIC8coHeQ4nl8dOM0XfwyzsOvnCii6/s1iQ0BilJ9AH8aor9y5kNF6d/qkoHztWNvmZvx5E8EMjOeajcetGN0QtUZyc3jmveULDCT0bcKmfgTEgIZA4gEjI5imv3YVfibC5s6sz7VOVTMT8epZ9jBNxVfj4OS2Ldn02NjMwLl6ajGqRMLs617SYWx96O/zPS/51f9Oj+lyf4vMGJx9kSrge7X4Ht08ICEQDCNg1BV3OBzkRp7Z9c2XX3L7XSmDUh6qhwYdc3Y+l+HXxqGN+fkHXUT0TtVAQe+pKMxiPYqyY3XV88OodH776xLRHezberb/rQ4ze4OSDFMmg63PlHgICAbxpZt2HVxJVD+w+sWti6nwCQKhl7O/+3P0H/DPH+TkbW2XD4auW7F6cKNboHTTon2ONRFHi0M6FTRft/5sFfzyzOYlnchxldqHhgxDopHvHTFzwypTvFW+WEBCQKNpW+f2L/n46LslpFN04EhNG//47Hz3a9MV4sRrgRtHQsETHnPpfLH+w4dCnxRN+F6CnUJAHiRrEABBz8EF+5upMz+AgddfD173T8oXGA7Qcu27iY59+6zX1VE5zczwOxqhJT/znzi9bwcHcIhqAGWg5Ze2sud+f9dhn1Gs5jdYLLAcfpD5OYfSQgEDCACw7w0O4fwrdglsU3n/jfWmExQJzJ3K96OhpeANlUz6+p+MU09XIgEbHjNp7WovPfCCkluU45uFj74N0KdP9qXIOAYF4uT9IikVD23ln2LRhLuZO/PCu3ae6/3mNnkp9+wuJTQ8/g1P9CL5AIdAHyZ9Zg9fhrJItP9l92tBypBGraPrPTx97Kr7ld0Y8wRAUrEICAokDiNq9Ge3SB/GbpbgXT1/ScJElnKs+MeCSzhqdU9bddGT1K0Q6uCkcfBBZExrld2iDip4EhoMPQuEZlOJx3IiFC1quNcP2m2UZVqCh5P3KVytfLl8Z/jjQ6ZS3riNqr35W/tbv7LjAwQdBWFJ4vFGIEVSGBAeiATcFlny9e5pdTmQsunr0k+X/jGw9OlakNwRWjQ4d1LC4+8TkBJ12b2lYovniEx5rXvkovuh3loYJDR+EiEBIlOUAPIfLUXrw7rMyex8CgV0V90y7796tT+rv4+3Uh43zNpz21KrP1t/Q81kt0w3E2PjGS55/axP5rpnSFC4qgSZWAECPgw9CYaAQAKaiVrR+KTEu/ZYQCG+o+NY3ftpeN19/v8/nH+Kh7nXP1lxa8rDM2CNAo/PUy+feQuaZ4eSD1CUo+CAEBBICoBx2uaVyk9yK8yZ3npT+0BcItJTdtOSRJ5Nr7DKHri2Tboy+mH6JNOJT2k98G1/1O1ODxt4HiSkKy/4REIi3IuiBxuVF+1XNHHdm8SsiN7MJ/4L7sfpTPftl1B+q/IGzH31VrXI4rhaN26bdEvo4/e5SaDz2F5HFOYm90CHQB7HgMLlmCMq5ED8oevqU9gub52i5e9NX/1yx9KCu1VnPwRMAjMOtSP9PBcKbqu9/PD7Qu8Tn4qsrF/9l1w1WvwLQ0LNXTHlnfdYD9wj78bigoLCzF4EaJAEgareltmsf5AxMiT5x45b/bTgzOduc2Xhy7f9s+mlF8eFZz8H38BVj27zM/kfRc3d/NPCUqHvwGWv8E8aO/reYRs+k1yZR2RfL3geRsiZc7Hdog4qeBLamq0sf5CU8iaVnblsSL9FI/UtE275ed8EKXJ/l6N/G1FKV0UE34hNWLEru63XL03DQxlEfp5UGzHDJJF+nQbrA6RoFBIWbj0KMHnEnrhvVcV5q/kUKjWR45wWnjH4zy7+8Dk1lofL0T3Vz7P1914AX4f5W86O0IyFk8aScFFrBQ0QgtkPmwp3V9DL+UNI6P/0Ic0rFhJosR78DTVFE04KHEevoGrPPY8+AUKIh8ylsjs5y0J7hdI1MEj4IgU56EA4+iHD3Uq4FLbSwO022X1gxYXn+I5rIo23PulgZuVeqLt45lNPlGALFHIBTDeJuIGsRzu4sW5dx9m27GuqynIMqjIkjzfDTsCKlxS37PPaf0LBKM/MZGPnb+/XJqx0JTeFlAAIC8erRewHu6yh5JNzT93yBZOUjz7TNzXIOZmFCm5mxgIeoiM7d95sAf8A1ZeH56Z9qndie5aAZACQEkgQgHRaOcyOei3Akjlg65jehmNjzWnnQLP3jvAePxd1ZzsGB6G5DRj/CCm8/VBu37uPYx/Dy9K6Z6Z8a8da6kixH7R32VX2YR7G8IQmv5oMsR33XgT+uWVL2anhreOvoN2q+M/fbH7a9mPUc/Bq3mRM/TBeIRvfJC2feNeCR12C33HmmOan//SVQtP2w+lOyHrc3GJA2LWQpp7AP4iEOPohbXsK8jit/d+Dpi4876biZi2+/60ttm3Iwp+QsAOYKI22gQSM2u/7SS0JnD3Dkn3DQIe3nq8yrtP6w2oGOowCNGYUERrEAL9dxvR3QaE8t6ff5HEV/Ps5Hz7uNm5L7p726Llsv/OObm/96vv6T7XGzUDX+/WvjGe9wSVQt+36M/qYNFARCpAZRtqua0JhyAwA/weO1xS9lNrKSE5tunnV6WB5hc8w8lE5Y/+POs1TaYQKR7aUvLMCDfmdqkNhfJY0Ev83rDWE4+yBU5oN8hCJd9Wi4xaYfMrfujueuHTde4199Pl+MX4UCR63/XfMlVjT9XAIlL9z44U9IPH8BJx9Eq9oEBR+EQBNLgs68DydOx39Bvfnzp+MXpedEI1HTeNOLp0z7W8nLX9pxaedM69HI42W1B/xsccep8SmZKhAIN07833MS9/qdpWFjsZPuDcL1FyORIlwXm3VX5+e6qzMlooo6ju36rNFQv+2FJmUaJfEJsWpVat80kSj/0w9e34LL/c5QgUBAIAkAUti0V136IP5yBZ7HCatq7kjcYgYzJQJYAas6US32pu0RGPX21P++0fwI3/Y7Qy6w90GKZJJAE5lAH8SEgw+iBAV97+VEnKsX/b5i6UBFrgdc60OgqGHaf7y+eSGhB4OzDzKZfRAPoXRHOLIAb7ROuLF42dAKXSDYUf6jV5++Gg/7nRFPoHFJiQiERmHuix/gIqyunfXNkpcN1zkSCLVV/ejSP9yg7/Q7Gx5BY9k/AgIRcFrd3b0P8jA0jtlv/pIxD5Q/uP93Fs5ZL67NaV5uwQ1YtWbSpeV/NVy8AS8gMGpb5ZIj7nwr+T85jdcLHHwQ3UNidXcCbAJg/AK6/z9Dz79Z4xZXZ7oGWiw8o/S9gCW11AFVumHaeeeIbL/Lm87VOBJnVNXcGm0WWmjs45/QQgessuWHHn+XpOmdX4vL54zenJGvnaX7UehBEqlBvOHvOPiwdb/uOMCSCgqW6JjR9MtNn1uD5TnNz51YjjGNp/1wzoUVz4Z6BlquOrUPVvGWyT9d+KVV/6hTD+U0zmxDYTYIiWFer3yQq3Bh8NzLuqb3VvgaAt0Tt3/t3Neuyfn6M3/AKcl5f5/1xvsnNV7ctShRrpG5qJyAYUbXlz05+eGL16xQcLVhKeMVBAQSB2DI4fsgf8ey8t2LdP8ToPMgPX6/2rdznqtnAJzR9oVHup9+5lOJY5oWif3McbFiFQCgQ7FIq1VXuqboxZlvfHnrv9SVOY/OW+x9kBLDIuCDEBCIBSASsnkZS7nbBnoHRCCZMcvIiIwq9Ws05Uk8CXTe9fo3Xv95aMPEt6q2l0WLA0Z3LNg+v+WQbcVtt+r1JEZ6BsbJB5kUSqDH7+D2CQGBeMU8lMbe29GStoSJ2t3V7O87Qd/EN4EEtmDLJ59txd8B5MvwNmUIdNIBb26Uk7GsJfJMfwdCouzFs3cSWv8gj2AfxCMEANNu6oDQrkZCbsEcTHmgaJncc2kEJIrfrr7nlxaVRTxp4uSDdFpJv0MbBAQEEgEQsytLl+tiAWuxsa7yirEPh1sNK6BCHWP++qkr3vyI+k5NIx2H+SC6nsT+IAXUB0nVRUdtrLny2XnF82Wga+3+75gdwA1+h8WMYAgIRAD2b4APqQn7ONCFlVgJAB/4nbWChsJ0KRJNrBiAgJ2QNYnwCx5h74OIciM0hLPlGgJ3mAIQDtp9IWD4HRyzT6S9DyLGhaJDOFvuo2cYxhEiAqEwYs64g30QjxAAknYv7bj0QRh/UA4+SLtJYY9CAqNYUQBxO4FItz4I4wfawQfZnowN5XQ5hkANol1/wVCAQgOLhEC89UGYkQKN5xuBJlYMQDBgPx/Evb5PR1G0be7WuVpMXhv98G/dmnWWZYTt4gFCjA008nwQL0j5IDbtVZfzQVJzCOMzV97QcaqqAGpbR//jMz8TH5yJv/mdxbxGQtr5hKIy2IGR/zYWAYEAXlXHh+KkyavuaTs+9UATVfHzE9OO+Lf6DVyL+AGNtfkJ9EEAb7obv8BbWPtvu4/rvTAaFtoW1V11q3Ga39krSNgH8QgBIOHgg7gZ5n0Ex5d3L7ZE3+eWQsvxd1T6ncP8RsGuhta62aQwzEugiRUFkLCbDyLdLR3zAUQ0MSnjJKMrKuVOv/OYz2gom8pC60b2QbxBAw57FLo7z1hMMqMZvUKViHdRuFD5B4UGFgmBeLUu1on4VVvpCtnvMIGid0VDnd9ZLEgodNFJCKQHQMiuKajg6nX3e3FlYvTvw3WfKEsg2lj12z/HzvM7i3mNgNTaxgcZH+TX3T1Bw0EgWrgKX+A4vPDmpOuK10stISF10ZZpN/7qpe/im35nMa+RtlW9EOWBsN+hDQICnXTAq+r4IbyjIo8e8MG20+WBEPH3Jjz9yPvPKF7S0x9o+CBEBOJVh+59QH+wpmLt06Ekzkq06hl+Z6yAoeGDEBCIBBC3HebVuHUI55sPaMSBr/udsQJBQQk7H6QxOfIXHiXRB4nAacIUlSX0Cxttu8q41s0kJkwREIhXPggzsqDQwCIhEEdolDDjAI3nGwGBxOC07I87H4TxB+ngg1SHivwObVDRj3g0gKCdElz6IIw/CAcfpIQXjvMOGtUx4wYaPggRgTCMPxAQiAEgbrMDG6S7+SCMP9j7IErtSHT7HdogICCQMJw20GEfhALaYbfVdt5AxxvYB8lPaIzSUxEIw/gCAYHEAUTtRgQ1iVfJCh4nH2RKuNjv0AYVPQkMuzjZByGBdFg4bpSk8HgjcIdJAMq0eR80qkWT38Ex+6QNnRGR8SaE0N0mhcYzARGHEEBRoidtmUqNxnlXRySFN6YLmpU4GjXT4mP7fypQpMzEaDT7Hd4+IVCDTMd0zNXp0zM1Og57/Yg7cLPf4TED8gCuGdX6xUQk/fMqHKEP9Tu4fGF/nHtWURd0/39Sl76yaA7wrt/hMQ5onIyfhKqXhLpE2rUTes6zy0rv8DvAQUBiMPpUFE1d8erW6vTQBYpXV91x0PL1DU1qqgEIdOjNClAYKyZJDYE2XasEFCaIcVJDYJeq1xIKk0WF1BBoUA1aQmOqHC00gHrVrCWA/eQooQFssXYDMDBDRoSGwmarC0AQM2RIAKbeqOIAItjPCABI6A3KBFCMaYaAQI/eqBQ0ykSNBAQ69ccKUKgU1UOKbpvapSWA6bJYaAC1ql0DEjNkVGhofNw/OmyyYv2i26iSAEZhep/ogNEZ0U2SgEC73qIEFMaL8VJDoFlt1RIK1aJSagjsVDu0hEaNLBMaAvVp0W2xji1aP6fu/OaLzOL03kYEC25q+HGt3zfWICAhkHvwdWPubzdclj6tUAAIJoN1sRYNIQABDaUAQIg9aa1SPqOQQkNA7RlwlELYpAHdm5YCzmkB0ZtWGqm07a/vK+0QnX20g42uT9rn6IIhY3JsjN1LiWOaP7u4ftVbft9Yg4CEQIADUHPs8sfbR9uPexDJRAGiIWzkEcCMh++5bFmcQv+RwCgWAJyKw16vfbrrfPu3dygMFxYqNjuDoLx17n03xt/0O7RBQWRK3nLUmjWbdh3bXeF3JMxwiajpv77zwU613O9A8outAM76WmXGeAj/o/UvqBe8fOvEy/2+nQYNkRoE+DW+giPe2ZTo+UwiOPyzMf4QxMQ3Zl2xejOdTe/ICARYDa1qVgbj8SO6KUxmZjIIY8Yb+13WvZZS44qQQICNOEOdsKprTcf05ASTh65IIVG2e/o9p9wQ2fCY36G4guBtdiXk1He/Wnt+y+R4gGcUjnQENEIo6piwfPY9855vTNzrd0Cu4yfIClQav5y24fTtx3UtbArJUUawz3B7KkefjC66S/eWR27TeRqdVmZPqGdiU/gfs58+/I3bd28DPUgKJMXF+HLJ/ZXJsRPnqkotRBKAhqFTzo4SSYg+aUuYENAIaAMAhAUTAloHUo1MYcKCAHQg9fqmSEJBADqYKiGRhAIg9qYT0ACETvWGtEhCA5A6uDcN6Iz08KLTOrgnut5onaLrn7aLzi5aT6MT0EERS27+aP0pnTfsbLPG+H27MAzDMAzDMAzDMAzDMAzDMAzDMAzDMAzDMAzDMAzDMAzDMAzDMAzDMAzDMAzDMAzDMAzDMAzDMAzDMAzDMAzDMAzDMAzDMAzDMAzDMAzDMAzDMAzDMAzDMAzDMAzDMAzDMMyI5v8B53VMk0O7O/YAAAAASUVORK5CYII=;" vertex="1" parent="swZepkNG1poCpX0fvXZE-43">
          <mxGeometry width="100.5" height="100" as="geometry" />
        </mxCell>
        <mxCell id="swZepkNG1poCpX0fvXZE-45" value="ZKP Prover" style="text;html=1;align=center;verticalAlign=middle;whiteSpace=wrap;rounded=0;" vertex="1" parent="swZepkNG1poCpX0fvXZE-43">
          <mxGeometry x="20.25" y="100" width="60" height="30" as="geometry" />
        </mxCell>
        <mxCell id="swZepkNG1poCpX0fvXZE-47" style="edgeStyle=orthogonalEdgeStyle;rounded=1;orthogonalLoop=1;jettySize=auto;html=1;exitX=0;exitY=0.5;exitDx=0;exitDy=0;curved=0;fillColor=#e1d5e7;strokeColor=#9673a6;strokeWidth=2;" edge="1" source="swZepkNG1poCpX0fvXZE-44" parent="1">
          <mxGeometry relative="1" as="geometry">
            <mxPoint x="451" y="1" as="targetPoint" />
          </mxGeometry>
        </mxCell>
        <mxCell id="swZepkNG1poCpX0fvXZE-48" style="edgeStyle=orthogonalEdgeStyle;rounded=1;orthogonalLoop=1;jettySize=auto;html=1;entryX=0.5;entryY=0;entryDx=0;entryDy=0;curved=0;fillColor=#e1d5e7;strokeColor=#9673a6;strokeWidth=2;" edge="1" target="swZepkNG1poCpX0fvXZE-44" parent="1">
          <mxGeometry relative="1" as="geometry">
            <mxPoint x="490" as="sourcePoint" />
            <Array as="points">
              <mxPoint x="490" y="80" />
              <mxPoint x="550" y="80" />
            </Array>
          </mxGeometry>
        </mxCell>
        <mxCell id="swZepkNG1poCpX0fvXZE-50" value="3. Upload Assigned Task" style="text;html=1;align=center;verticalAlign=middle;whiteSpace=wrap;rounded=0;" vertex="1" parent="1">
          <mxGeometry x="130" y="132" width="120" height="38" as="geometry" />
        </mxCell>
        <mxCell id="swZepkNG1poCpX0fvXZE-52" value="Decentralized Sequencer Network" style="text;html=1;align=center;verticalAlign=middle;whiteSpace=wrap;rounded=0;fontSize=14;fontStyle=1" vertex="1" parent="1">
          <mxGeometry x="-100" y="201" width="130" height="69" as="geometry" />
        </mxCell>
        <mxCell id="swZepkNG1poCpX0fvXZE-53" value="Prover Pool" style="text;html=1;align=center;verticalAlign=middle;whiteSpace=wrap;rounded=0;fontSize=14;fontStyle=1" vertex="1" parent="1">
          <mxGeometry x="850" y="130" width="130" height="40" as="geometry" />
        </mxCell>
        <mxCell id="swZepkNG1poCpX0fvXZE-55" value="W3bstream Hub on IoTeX L1" style="text;html=1;align=center;verticalAlign=middle;whiteSpace=wrap;rounded=0;fontSize=14;fontStyle=1" vertex="1" parent="1">
          <mxGeometry x="285" y="-130" width="290" height="40" as="geometry" />
        </mxCell>
      </root>
    </mxGraphModel>
  </diagram>
</mxfile>
